<?xml version="1.0" encoding="utf-8"?>
<!-- Generator: Adobe Illustrator 16.0.4, SVG Export Plug-In . SVG Version: 6.00 Build 0)  -->
<!DOCTYPE svg PUBLIC "-//W3C//DTD SVG 1.1//EN" "http://www.w3.org/Graphics/SVG/1.1/DTD/svg11.dtd">
<svg version="1.1" id="SRP" xmlns="http://www.w3.org/2000/svg" xmlns:xlink="http://www.w3.org/1999/xlink" x="0px" y="0px"
	 width="240px" height="107.5px" viewBox="0 0 240 107.5" enable-background="new 0 0 240 107.5" xml:space="preserve">
<g>
	<g>
		<path fill="#202020" d="M24.628,51.802c3.187-20.767,54.284-34.343,102.008-34.343c12.601,0,23.672,1.177,33.157,3.209
			c-16.114-4.382-35.988-6.649-55.34-6.649c-43.424,0-89.575,11.4-89.575,32.525c0,8.072,6.768,14.723,17.526,19.862
			C26.82,61.425,23.932,56.322,24.628,51.802"/>
	</g>
	<g>
		<path fill="#202020" d="M204.978,42.986c5.956,5.192,9.09,10.535,8.373,15.266c-3.19,20.99-54.288,34.705-102.007,34.705
			c-11.402,0-21.536-0.97-30.383-2.668c15.702,4.018,34.63,6.119,53.094,6.119c43.421,0,89.571-11.501,89.571-32.837
			C223.626,55.135,216.388,48.246,204.978,42.986"/>
	</g>
	<g>
		<path fill="#16145F" d="M83.739,53.39c-2.076-0.945-4.163-1.683-6.207-2.228c-2.016-0.526-5.959-1.424-11.952-2.743
			c-3.821-0.824-6.639-1.721-8.305-2.553c-0.83-0.412-1.351-0.803-1.57-1.045c-0.056-0.054-0.091-0.102-0.119-0.135l0.015-0.008
			v-0.133c-0.03-0.517,0.279-1.319,3.046-2.341c2.703-0.919,6.416-1.439,11.093-1.436c4.132,0,8.521,0.375,13.179,1.14l1.566,0.253
			l0.756-1.414l3.567-6.753l-3.118-0.456c-5.413-0.785-10.876-1.179-16.374-1.179c-7.557,0.003-13.896,0.907-19.058,2.794
			c-5.118,1.816-8.683,4.999-8.688,9.497c-0.018,1.775,0.732,3.491,1.953,4.811c1.183,1.289,2.715,2.343,4.577,3.25
			c1.804,0.868,3.635,1.55,5.482,2.047c1.791,0.49,5.528,1.364,11.347,2.659c5.545,1.204,9.291,2.448,10.825,3.367
			c1.62,1.002,1.87,1.645,1.892,2.343c-0.02,1.043-0.534,2.036-3.397,3.26c-2.819,1.15-6.815,1.782-11.941,1.77
			c-4.337,0.012-9.525-0.603-15.499-1.874L45.1,65.914l-3.892,8.01l2.668,0.651c5.476,1.35,11.752,2.008,18.853,2.008
			c7.42,0,13.941-1.067,19.557-3.239c5.653-2.103,9.4-5.783,9.391-10.739c0.01-2.125-0.932-4.128-2.466-5.635
			C87.766,55.522,85.92,54.346,83.739,53.39z"/>
		<path fill="#16145F" d="M193.62,35.988c-4.755-2.012-10.785-2.94-18.18-2.947h-21.286v41.853l-24.742-18.276
			c3.352-0.729,6.194-1.751,8.568-3.123c3.451-1.974,5.825-4.728,5.825-8.176c0.03-4.339-3.168-7.619-7.839-9.465
			c-4.72-1.932-10.848-2.805-18.445-2.812H93.168v42.862h13.646V58.488h7.017l22.901,17.415h17.423h1.363h0.859h11.098V58.674h8.438
			c7.166,0,13.093-0.986,17.812-3.131c4.65-2.037,7.768-5.478,7.732-9.85C201.495,41.306,198.324,37.93,193.62,35.988z
			 M106.813,41.445h9.368c5.119-0.009,8.875,0.548,11.037,1.428c2.193,1.001,2.489,1.646,2.563,2.718
			c0.021,0.599-0.423,1.563-3.111,2.761c-2.566,1.098-6.152,1.713-10.717,1.713h-9.141V41.445z M167.475,50.266v-8.821h7.625
			c4.18,0,7.45,0.606,9.826,1.667c2.434,1.157,2.842,2.017,2.848,2.85c-0.062,1.204-0.391,1.856-2.47,2.86
			c-2.078,0.887-5.686,1.454-10.629,1.445H167.475z"/>
	</g>
</g>
<g>
</g>
<g>
</g>
<g>
</g>
<g>
</g>
<g>
</g>
<g>
</g>
</svg>
